<?xml version="1.0" encoding="UTF-8" standalone="no"?>
<!DOCTYPE svg PUBLIC "-//W3C//DTD SVG 1.1//EN"
 "http://www.w3.org/Graphics/SVG/1.1/DTD/svg11.dtd">
<!-- Generated by graphviz version 2.26.3 (20100126.1600)
 -->
<!-- Title: G Pages: 1 -->
<svg width="150pt" height="206pt"
 viewBox="0.00 0.00 150.00 206.00" xmlns="http://www.w3.org/2000/svg" xmlns:xlink="http://www.w3.org/1999/xlink">
<g id="graph1" class="graph" transform="scale(1 1) rotate(0) translate(4 202)">
<title>G</title>
<polygon fill="white" stroke="white" points="-4,5 -4,-202 147,-202 147,5 -4,5"/>
<g id="graph2" class="cluster"><title>cluster_Global</title>
<polyline fill="none" stroke="gray" points="20,-8 122,-8 "/>
<path fill="none" stroke="gray" d="M122,-8C128,-8 134,-14 134,-20"/>
<polyline fill="none" stroke="gray" points="134,-20 134,-178 "/>
<path fill="none" stroke="gray" d="M134,-178C134,-184 128,-190 122,-190"/>
<polyline fill="none" stroke="gray" points="122,-190 20,-190 "/>
<path fill="none" stroke="gray" d="M20,-190C14,-190 8,-184 8,-178"/>
<polyline fill="none" stroke="gray" points="8,-178 8,-20 "/>
<path fill="none" stroke="gray" d="M8,-20C8,-14 14,-8 20,-8"/>
<text text-anchor="middle" x="71" y="-176.1" font-family="Times Roman,serif" font-size="11.00" fill="gray">\</text>
</g>
<!-- \\Midget_Template -->
<g id="node2" class="node"><title>\\Midget_Template</title>
<polygon fill="none" stroke="black" points="126,-160 16,-160 16,-124 126,-124 126,-160"/>
<text text-anchor="middle" x="71" y="-139.1" font-family="Times Roman,serif" font-size="11.00">Midget_Template</text>
</g>
<!-- \\Midget_Engine -->
<g id="node3" class="node"><title>\\Midget_Engine</title>
<polygon fill="none" stroke="black" points="118,-106 24,-106 24,-70 118,-70 118,-106"/>
<text text-anchor="middle" x="71" y="-85.1" font-family="Times Roman,serif" font-size="11.00">Midget_Engine</text>
</g>
<!-- \\Midget_Parser -->
<g id="node4" class="node"><title>\\Midget_Parser</title>
<polygon fill="none" stroke="black" points="118,-52 24,-52 24,-16 118,-16 118,-52"/>
<text text-anchor="middle" x="71" y="-31.1" font-family="Times Roman,serif" font-size="11.00">Midget_Parser</text>
</g>
</g>
</svg>
